HIERARCHY
ROOT hip
{
  OFFSET -0.0897746 90.7695 -0.105382
  CHANNELS 6 Xposition Yposition Zposition Zrotation Xrotation Yrotation
  JOINT abdomen
  {
    OFFSET 0 7.2397 0
    CHANNELS 6 Xposition Yposition Zposition Zrotation Xrotation Yrotation
    JOINT chest
    {
      OFFSET 0 16.546 0
      CHANNELS 6 Xposition Yposition Zposition Zrotation Xrotation Yrotation
      JOINT neck
      {
        OFFSET 0 34.2149 0
        CHANNELS 6 Xposition Yposition Zposition Zrotation Xrotation Yrotation
        JOINT head
        {
          OFFSET 0 6.2923 0
          CHANNELS 6 Xposition Yposition Zposition Zrotation Xrotation Yrotation
          End Site
          {
            OFFSET 0 21.2161 0
          }
        }
      }
      JOINT lCollar
      {
        OFFSET 4.0639 26.6115 -1.1234
        CHANNELS 6 Xposition Yposition Zposition Zrotation Xrotation Yrotation
        JOINT lShldr
        {
          OFFSET 14.1772 0 0
          CHANNELS 6 Xposition Yposition Zposition Zrotation Xrotation Yrotation
          JOINT lForeArm
          {
            OFFSET 26.1234 0 0
            CHANNELS 6 Xposition Yposition Zposition Zrotation Xrotation Yrotation
            JOINT lHand
            {
              OFFSET 27.7188 0 0
              CHANNELS 6 Xposition Yposition Zposition Zrotation Xrotation Yrotation
              JOINT lThumb1
              {
                OFFSET 2.2979 -0.4685 1.8313
                CHANNELS 6 Xposition Yposition Zposition Zrotation Xrotation Yrotation
                JOINT lThumb2
                {
                  OFFSET 5.2953 0 0
                  CHANNELS 6 Xposition Yposition Zposition Zrotation Xrotation Yrotation
                  JOINT lThumb3
                  {
                    OFFSET 3.0181 0 0
                    CHANNELS 6 Xposition Yposition Zposition Zrotation Xrotation Yrotation
                    End Site
                    {
                      OFFSET 2.6294 0 0
                    }
                  }
                }
              }
              JOINT lIndex1
              {
                OFFSET 9.3793 0.2991 2.5924
                CHANNELS 6 Xposition Yposition Zposition Zrotation Xrotation Yrotation
                JOINT lIndex2
                {
                  OFFSET 4.3461 0 0
                  CHANNELS 6 Xposition Yposition Zposition Zrotation Xrotation Yrotation
                  JOINT lIndex3
                  {
                    OFFSET 2.1666 0 0
                    CHANNELS 6 Xposition Yposition Zposition Zrotation Xrotation Yrotation
                    End Site
                    {
                      OFFSET 2.2048 0 0
                    }
                  }
                }
              }
              JOINT lMid1
              {
                OFFSET 9.4769 0.8376 0.2947
                CHANNELS 6 Xposition Yposition Zposition Zrotation Xrotation Yrotation
                JOINT lMid2
                {
                  OFFSET 4.772 0 0
                  CHANNELS 6 Xposition Yposition Zposition Zrotation Xrotation Yrotation
                  JOINT lMid3
                  {
                    OFFSET 2.8722 0 0
                    CHANNELS 6 Xposition Yposition Zposition Zrotation Xrotation Yrotation
                    End Site
                    {
                      OFFSET 2.0959 0 0
                    }
                  }
                }
              }
              JOINT lRing1
              {
                OFFSET 8.6586 1.0176 -1.7016
                CHANNELS 6 Xposition Yposition Zposition Zrotation Xrotation Yrotation
                JOINT lRing2
                {
                  OFFSET 4.5461 0 0
                  CHANNELS 6 Xposition Yposition Zposition Zrotation Xrotation Yrotation
                  JOINT lRing3
                  {
                    OFFSET 2.506 0 0
                    CHANNELS 6 Xposition Yposition Zposition Zrotation Xrotation Yrotation
                    End Site
                    {
                      OFFSET 2.2023 0 0
                    }
                  }
                }
              }
              JOINT lPinky1
              {
                OFFSET 7.6901 0.6618 -3.9096
                CHANNELS 6 Xposition Yposition Zposition Zrotation Xrotation Yrotation
                JOINT lPinky2
                {
                  OFFSET 3.2119 0 0
                  CHANNELS 6 Xposition Yposition Zposition Zrotation Xrotation Yrotation
                  JOINT lPinky3
                  {
                    OFFSET 1.924 0 0
                    CHANNELS 6 Xposition Yposition Zposition Zrotation Xrotation Yrotation
                    End Site
                    {
                      OFFSET 1.7829 0 0
                    }
                  }
                }
              }
            }
          }
        }
      }
      JOINT rCollar
      {
        OFFSET -4.0677 26.6109 -1.1234
        CHANNELS 6 Xposition Yposition Zposition Zrotation Xrotation Yrotation
        JOINT rShldr
        {
          OFFSET -14.1772 0 0
          CHANNELS 6 Xposition Yposition Zposition Zrotation Xrotation Yrotation
          JOINT rForeArm
          {
            OFFSET -26.1234 0 0
            CHANNELS 6 Xposition Yposition Zposition Zrotation Xrotation Yrotation
            JOINT rHand
            {
              OFFSET -27.7188 0 0
              CHANNELS 6 Xposition Yposition Zposition Zrotation Xrotation Yrotation
              JOINT rThumb1
              {
                OFFSET -2.2979 -0.4684 1.8313
                CHANNELS 6 Xposition Yposition Zposition Zrotation Xrotation Yrotation
                JOINT rThumb2
                {
                  OFFSET -5.2953 0 0
                  CHANNELS 6 Xposition Yposition Zposition Zrotation Xrotation Yrotation
                  JOINT rThumb3
                  {
                    OFFSET -3.0181 0 0
                    CHANNELS 6 Xposition Yposition Zposition Zrotation Xrotation Yrotation
                    End Site
                    {
                      OFFSET -2.6294 0 0
                    }
                  }
                }
              }
              JOINT rIndex1
              {
                OFFSET -9.3793 0.2991 2.5924
                CHANNELS 6 Xposition Yposition Zposition Zrotation Xrotation Yrotation
                JOINT rIndex2
                {
                  OFFSET -4.3461 0 0
                  CHANNELS 6 Xposition Yposition Zposition Zrotation Xrotation Yrotation
                  JOINT rIndex3
                  {
                    OFFSET -2.1666 0 0
                    CHANNELS 6 Xposition Yposition Zposition Zrotation Xrotation Yrotation
                    End Site
                    {
                      OFFSET -2.2048 0 0
                    }
                  }
                }
              }
              JOINT rMid1
              {
                OFFSET -9.4769 0.8376 0.2947
                CHANNELS 6 Xposition Yposition Zposition Zrotation Xrotation Yrotation
                JOINT rMid2
                {
                  OFFSET -4.772 0 0
                  CHANNELS 6 Xposition Yposition Zposition Zrotation Xrotation Yrotation
                  JOINT rMid3
                  {
                    OFFSET -2.8722 0 0
                    CHANNELS 6 Xposition Yposition Zposition Zrotation Xrotation Yrotation
                    End Site
                    {
                      OFFSET -2.0959 0 0
                    }
                  }
                }
              }
              JOINT rRing1
              {
                OFFSET -8.6586 1.0176 -1.7016
                CHANNELS 6 Xposition Yposition Zposition Zrotation Xrotation Yrotation
                JOINT rRing2
                {
                  OFFSET -4.5461 0 0
                  CHANNELS 6 Xposition Yposition Zposition Zrotation Xrotation Yrotation
                  JOINT rRing3
                  {
                    OFFSET -2.506 0 0
                    CHANNELS 6 Xposition Yposition Zposition Zrotation Xrotation Yrotation
                    End Site
                    {
                      OFFSET -2.2023 0 0
                    }
                  }
                }
              }
              JOINT rPinky1
              {
                OFFSET -7.6901 0.6618 -3.9096
                CHANNELS 6 Xposition Yposition Zposition Zrotation Xrotation Yrotation
                JOINT rPinky2
                {
                  OFFSET -3.2119 0 0
                  CHANNELS 6 Xposition Yposition Zposition Zrotation Xrotation Yrotation
                  JOINT rPinky3
                  {
                    OFFSET -1.924 0 0
                    CHANNELS 6 Xposition Yposition Zposition Zrotation Xrotation Yrotation
                    End Site
                    {
                      OFFSET -1.7829 0 0
                    }
                  }
                }
              }
            }
          }
        }
      }
    }
  }
  JOINT lThigh
  {
    OFFSET 8.7379 -0.0029 0.0005
    CHANNELS 6 Xposition Yposition Zposition Zrotation Xrotation Yrotation
    JOINT lShin
    {
      OFFSET 0 -46.6676 0
      CHANNELS 6 Xposition Yposition Zposition Zrotation Xrotation Yrotation
      JOINT lFoot
      {
        OFFSET 0 -40.1476 0
        CHANNELS 6 Xposition Yposition Zposition Zrotation Xrotation Yrotation
        JOINT lToes
        {
          OFFSET 0 -8.8846 14.2294
          CHANNELS 6 Xposition Yposition Zposition Zrotation Xrotation Yrotation
          End Site
          {
            OFFSET 0 0 6.296
          }
        }
      }
    }
  }
  JOINT rThigh
  {
    OFFSET -8.7379 0.0029 -0.0005
    CHANNELS 6 Xposition Yposition Zposition Zrotation Xrotation Yrotation
    JOINT rShin
    {
      OFFSET 0 -46.6676 0
      CHANNELS 6 Xposition Yposition Zposition Zrotation Xrotation Yrotation
      JOINT rFoot
      {
        OFFSET 0 -40.1476 0
        CHANNELS 6 Xposition Yposition Zposition Zrotation Xrotation Yrotation
        JOINT rToes
        {
          OFFSET 0 -8.8846 14.2294
          CHANNELS 6 Xposition Yposition Zposition Zrotation Xrotation Yrotation
          End Site
          {
            OFFSET 0 0 6.296
          }
        }
      }
    }
  }
}
MOTION
Frames:	4
Frame Time:	0.0333333
-0.0897746 90.7695 -0.105382 -3.51452 -0.420878 -34.0604 0 7.2397 0 1.20465 -0.0432874 2.54267 -4.44089e-16 16.546 -4.44089e-16 1.79901 1.81329 4.85684 0 34.2149 -5.55112e-17 -3.45253 50.3095 9.12158 0 6.2923 0 -5.50599 -23.3656 3.35449 4.0639 26.6115 -1.1234 -1.18014 -4.84291 -16.8659 14.1772 2.84217e-14 0 -42.3069 -11.331 -40.319 26.1234 0 -1.42109e-14 4.84332 3.85908 -70.8971 27.7188 0 -3.55271e-15 70.5474 -19.1051 61.1211 2.2979 -0.4685 1.8313 69.9432 84.1285 -87.1365 5.2953 4.26326e-14 1.42109e-14 -11.2965 -2.37211 -5.84065 3.0181 -2.84217e-14 7.10543e-15 12.4883 -0.000109421 -5.86965e-06 9.3793 0.2991 2.5924 -54.8783 -4.07613 29.0092 4.3461 3.55271e-15 2.84217e-14 -36.3856 -1.04825 4.14928 2.1666 -7.10543e-15 -2.84217e-14 -2.1684 -1.36217e-05 -1.63111e-06 9.4769 0.8376 0.2947 -70.3751 -7.83647 24.7014 4.772 -3.55271e-15 0 -26.6493 -0.348289 1.80381 2.8722 0 -5.68434e-14 3.9574 0.0710973 0.3994 8.6586 1.0176 -1.7016 -72.3081 -2.78939 21.9285 4.5461 0 0 -54.7865 1.2218 -2.34117 2.506 -7.10543e-15 -5.68434e-14 6.7605 -9.46994e-06 -9.94322e-05 7.6901 0.6618 -3.9096 -77.8976 -11.9162 17.9604 3.2119 0 0 -54.7865 -2.82848 5.45755 1.924 -3.55271e-15 2.84217e-14 4.4131 -5.95467e-06 -3.69154e-06 -4.0677 26.6109 -1.1234 -7.37993 -7.50434 23.7921 -14.1772 2.84217e-14 -8.88178e-16 42.4168 6.57407 79.8196 -26.1234 0 1.42109e-14 5.85697 -8.36679 32.6359 -27.7188 0 -1.42109e-14 -15.2626 -39.0831 -14.917 -2.2979 -0.4684 1.8313 -92.2527 53.1194 129.09 -5.2953 -1.42109e-14 1.42109e-14 26.2313 12.386 -5.72413 -3.0181 0 -1.42109e-14 -12.4883 -9.51409e-05 0.000105278 -9.3793 0.2991 2.5924 -10.818 -6.27557 -6.41593 -4.3461 8.88178e-16 0 19.0732 -0.324334 -4.36821 -2.1666 -3.55271e-15 0 2.1682 1.53065e-06 6.59416e-06 -9.4769 0.8376 0.2947 50.2578 -7.02253 -9.44883 -4.772 0 -2.84217e-14 81.5232 -4.32509 -5.10947 -2.8722 -7.10543e-15 2.84217e-14 -3.95751 0.0709846 -0.399396 -8.6586 1.0176 -1.7016 49.3049 2.3692 -6.59219 -4.5461 0 2.84217e-14 78.7391 3.33967 4.24025 -2.506 0 0 -6.7605 -1.01325e-05 4.95487e-06 -7.6901 0.6618 -3.9096 52.9035 -8.31878 1.34813 -3.2119 7.10543e-15 2.84217e-14 60.8902 -8.44058 -6.61889 -1.924 -3.55271e-15 0 -4.413 -4.01223e-06 1.12213e-06 8.7379 -0.0029 0.0005 18.9217 -21.0442 14.3201 0 -46.6676 7.10543e-15 3.2746 33.7701 -1.04711 0 -40.1476 3.55271e-15 -12.4089 -6.82377 17.6742 0 -8.8846 14.2294 0.0001 0 -0 -8.7379 0.0029 -0.0005 -16.2074 -5.55459 -23.9227 0 -46.6676 0 -3.16017 33.1145 1.08727 7.10543e-15 -40.1476 6.21725e-15 16.4632 -17.2339 -2.20619 0 -8.8846 14.2294 -1.98785e-16 -4.96962e-17 6.36111e-15 
-0.0890438 90.7715 -0.106608 -3.51098 -0.420048 -34.0579 8.88178e-16 7.2397 -4.44089e-16 1.20564 -0.0397202 2.54342 -4.44089e-16 16.546 4.44089e-16 1.80158 1.82049 4.85803 0 34.2149 0 -3.46853 50.2968 9.07701 0 6.2923 -1.42109e-14 -5.47753 -23.3897 3.22143 4.0639 26.6115 -1.1234 -1.16955 -4.84486 -16.856 14.1772 0 -1.77636e-15 -42.3086 -11.344 -40.3197 26.1234 -1.42109e-14 0 4.84278 3.8561 -70.9305 27.7188 0 3.55271e-15 70.5406 -19.1136 61.1087 2.2979 -0.4685 1.8313 70.0535 84.0661 -87.2718 5.2953 0 7.10543e-15 -11.3655 -2.38785 -5.82455 3.0181 0 -3.55271e-15 12.4883 -0.000109421 -5.86965e-06 9.3793 0.2991 2.5924 -54.8958 -4.05531 28.9907 4.3461 0 0 -36.3855 -1.04824 4.14927 2.1666 -1.42109e-14 0 -2.1684 -1.36217e-05 -1.63111e-06 9.4769 0.8376 0.2947 -70.4038 -7.83678 24.7061 4.772 3.55271e-15 -2.84217e-14 -26.6456 -0.348172 1.80357 2.8722 7.10543e-15 2.84217e-14 3.9574 0.0710973 0.3994 8.6586 1.0176 -1.7016 -72.287 -2.80887 21.9684 4.5461 0 2.84217e-14 -54.7832 1.22166 -2.34107 2.506 7.10543e-15 2.84217e-14 6.7605 -9.46994e-06 -9.94322e-05 7.6901 0.6618 -3.9096 -77.7971 -11.915 17.9529 3.2119 0 2.84217e-14 -54.7821 -2.82807 5.45725 1.924 -3.55271e-15 0 4.4131 -5.95467e-06 -3.69154e-06 -4.0677 26.6109 -1.1234 -7.38141 -7.50469 23.7914 -14.1772 0 1.77636e-15 42.4261 6.56357 79.7654 -26.1234 2.84217e-14 7.10543e-15 5.8665 -8.3302 32.7796 -27.7188 0 1.42109e-14 -15.3105 -39.0032 -14.9601 -2.2979 -0.4684 1.8313 -92.1833 53.207 128.957 -5.2953 0 0 26.2906 12.3458 -5.72759 -3.0181 0 0 -12.4883 -9.51409e-05 0.000105278 -9.3793 0.2991 2.5924 -10.7668 -6.28256 -6.41122 -4.3461 8.88178e-16 0 19.0989 -0.32536 -4.36727 -2.1666 0 -5.68434e-14 2.1682 1.53065e-06 6.59416e-06 -9.4769 0.8376 0.2947 50.3025 -7.02345 -9.44389 -4.772 0 0 81.518 -4.32463 -5.1094 -2.8722 -7.10543e-15 2.84217e-14 -3.95751 0.0709846 -0.399396 -8.6586 1.0176 -1.7016 49.3064 2.36918 -6.59618 -4.5461 0 0 78.7276 3.33882 4.24008 -2.506 7.10543e-15 2.84217e-14 -6.7605 -1.01325e-05 4.95487e-06 -7.6901 0.6618 -3.9096 52.908 -8.30957 1.37137 -3.2119 0 -2.84217e-14 61.0478 -8.42848 -6.61218 -1.924 0 0 -4.413 -4.01223e-06 1.12213e-06 8.7379 -0.0029 0.0005 18.9174 -21.0431 14.3184 3.55271e-15 -46.6676 7.10543e-15 3.27285 33.7579 -1.04598 0 -40.1476 0 -12.4074 -6.81625 17.677 -3.55271e-15 -8.8846 14.2294 0.0001 3.10601e-18 -4.96962e-17 -8.7379 0.0029 -0.0005 -16.2071 -5.55515 -23.921 0 -46.6676 3.55271e-15 -3.15938 33.1089 1.08697 -3.55271e-15 -40.1476 4.44089e-16 16.4574 -17.2354 -2.21198 0 -8.8846 14.2294 3.97569e-16 4.96962e-17 -9.54166e-15 
-0.0883974 90.7735 -0.107782 -3.50744 -0.419156 -34.0553 8.88178e-16 7.2397 0 1.20665 -0.0362654 2.54413 4.44089e-16 16.546 -4.44089e-16 1.80416 1.82746 4.85916 0 34.2149 -1.66533e-16 -3.48372 50.2841 9.03282 -1.77636e-15 6.2923 0 -5.44913 -23.4131 3.09136 4.0639 26.6115 -1.1234 -1.1593 -4.84673 -16.8461 14.1772 2.84217e-14 0 -42.3104 -11.3567 -40.3201 26.1234 1.42109e-14 0 4.84231 3.8531 -70.9645 27.7188 1.42109e-14 0 70.5335 -19.1217 61.0957 2.2979 -0.4685 1.8313 70.1612 84.0039 -87.4046 5.2953 4.26326e-14 0 -11.4341 -2.40348 -5.80845 3.0181 -5.68434e-14 -3.55271e-15 12.4883 -0.000109421 -5.86965e-06 9.3793 0.2991 2.5924 -54.9135 -4.03449 28.9722 4.3461 0 2.84217e-14 -36.3854 -1.04824 4.14926 2.1666 0 2.84217e-14 -2.1684 -1.36217e-05 -1.63111e-06 9.4769 0.8376 0.2947 -70.433 -7.83701 24.7108 4.772 -7.10543e-15 0 -26.6418 -0.348054 1.80334 2.8722 0 0 3.9574 0.0710973 0.3994 8.6586 1.0176 -1.7016 -72.2653 -2.82846 22.0084 4.5461 -7.10543e-15 2.84217e-14 -54.78 1.22154 -2.34098 2.506 -7.10543e-15 0 6.7605 -9.46994e-06 -9.94322e-05 7.6901 0.6618 -3.9096 -77.6967 -11.914 17.9455 3.2119 0 0 -54.7778 -2.82766 5.45696 1.924 0 0 4.4131 -5.95467e-06 -3.69154e-06 -4.0677 26.6109 -1.1234 -7.3826 -7.50492 23.7903 -14.1772 0 -1.77636e-15 42.4354 6.55329 79.7104 -26.1234 2.84217e-14 -7.10543e-15 5.87614 -8.29351 32.9248 -27.7188 0 1.42109e-14 -15.3585 -38.9226 -15.0032 -2.2979 -0.4684 1.8313 -92.1123 53.2946 128.823 -5.2953 1.42109e-14 0 26.3495 12.3057 -5.73099 -3.0181 0 2.84217e-14 -12.4883 -9.51409e-05 0.000105278 -9.3793 0.2991 2.5924 -10.715 -6.28956 -6.40659 -4.3461 -8.88178e-16 0 19.1245 -0.326388 -4.36634 -2.1666 0 0 2.1682 1.53065e-06 6.59416e-06 -9.4769 0.8376 0.2947 50.3493 -7.02442 -9.43839 -4.772 0 0 81.5126 -4.32415 -5.10932 -2.8722 1.42109e-14 0 -3.95751 0.0709846 -0.399396 -8.6586 1.0176 -1.7016 49.3083 2.36916 -6.60019 -4.5461 0 -2.84217e-14 78.7153 3.33792 4.2399 -2.506 0 -5.68434e-14 -6.7605 -1.01325e-05 4.95487e-06 -7.6901 0.6618 -3.9096 52.9126 -8.30033 1.39487 -3.2119 7.10543e-15 0 61.2087 -8.41657 -6.60557 -1.924 3.55271e-15 0 -4.413 -4.01223e-06 1.12213e-06 8.7379 -0.0029 0.0005 18.9132 -21.0421 14.3167 3.55271e-15 -46.6676 7.10543e-15 3.27114 33.7459 -1.04487 -3.55271e-15 -40.1476 0 -12.4059 -6.80886 17.6797 0 -8.8846 14.2294 0.0001 0 4.96962e-17 -8.7379 0.0029 -0.0005 -16.2067 -5.55568 -23.9193 3.55271e-15 -46.6676 0 -3.15859 33.1032 1.08667 0 -40.1476 -2.66454e-15 16.4516 -17.237 -2.21779 0 -8.8846 14.2294 1.98785e-16 -4.96962e-17 -3.18055e-15 
-0.0873348 90.7757 -0.10921 -3.50391 -0.418585 -34.0531 0 7.2397 0 1.20761 -0.0322558 2.545 0 16.546 -8.88178e-16 1.80669 1.83554 4.8606 -2.22045e-16 34.2149 -5.55112e-17 -3.50314 50.2711 8.98689 -1.77636e-15 6.2923 0 -5.4211 -23.4398 2.94621 4.0639 26.6115 -1.1234 -1.14738 -4.84896 -16.8362 14.1772 0 0 -42.3117 -11.3709 -40.3219 26.1234 -1.42109e-14 0 4.84144 3.85017 -70.9957 27.7188 0 3.55271e-15 70.528 -19.1313 61.0851 2.2979 -0.4685 1.8313 70.2655 83.9411 -87.5329 5.2953 0 -7.10543e-15 -11.5051 -2.41965 -5.79233 3.0181 0 7.10543e-15 12.4883 -0.000109421 -5.86965e-06 9.3793 0.2991 2.5924 -54.93 -4.01365 28.9538 4.3461 -3.55271e-15 0 -36.3854 -1.04824 4.14925 2.1666 -7.10543e-15 0 -2.1684 -1.36217e-05 -1.63111e-06 9.4769 0.8376 0.2947 -70.4597 -7.83758 24.7158 4.772 0 -2.84217e-14 -26.638 -0.347936 1.8031 2.8722 0 2.84217e-14 3.9574 0.0710973 0.3994 8.6586 1.0176 -1.7016 -72.2459 -2.84741 22.0485 4.5461 7.10543e-15 0 -54.776 1.22138 -2.34086 2.506 0 -5.68434e-14 6.7605 -9.46994e-06 -9.94322e-05 7.6901 0.6618 -3.9096 -77.5961 -11.912 17.9373 3.2119 0 -2.84217e-14 -54.7731 -2.82721 5.45663 1.924 -7.10543e-15 0 4.4131 -5.95467e-06 -3.69154e-06 -4.0677 26.6109 -1.1234 -7.38515 -7.50573 23.791 -14.1772 0 8.88178e-16 42.4439 6.5403 79.659 -26.1234 2.84217e-14 7.10543e-15 5.88438 -8.25748 33.0627 -27.7188 -1.42109e-14 -1.42109e-14 -15.4051 -38.8453 -15.0457 -2.2979 -0.4684 1.8313 -92.0451 53.3805 128.687 -5.2953 1.42109e-14 0 26.4101 12.2654 -5.73464 -3.0181 0 -1.42109e-14 -12.4883 -9.51409e-05 0.000105278 -9.3793 0.2991 2.5924 -10.6662 -6.29656 -6.40159 -4.3461 -1.33227e-15 0 19.15 -0.327406 -4.36537 -2.1666 0 2.84217e-14 2.1682 1.53065e-06 6.59416e-06 -9.4769 0.8376 0.2947 50.3856 -7.02514 -9.43567 -4.772 0 0 81.5081 -4.32375 -5.10926 -2.8722 -7.10543e-15 2.84217e-14 -3.95751 0.0709846 -0.399396 -8.6586 1.0176 -1.7016 49.3083 2.36917 -6.6041 -4.5461 1.42109e-14 0 78.7069 3.3373 4.23978 -2.506 0 0 -6.7605 -1.01325e-05 4.95487e-06 -7.6901 0.6618 -3.9096 52.9163 -8.29123 1.41707 -3.2119 -7.10543e-15 0 61.3538 -8.40374 -6.59845 -1.924 0 0 -4.413 -4.01223e-06 1.12213e-06 8.7379 -0.0029 0.0005 18.9085 -21.0406 14.3149 0 -46.6676 0 3.26929 33.733 -1.04367 3.55271e-15 -40.1476 -3.55271e-15 -12.4041 -6.80086 17.6828 0 -8.8846 14.2294 0.0001 -3.10601e-18 4.96962e-17 -8.7379 0.0029 -0.0005 -16.2066 -5.55633 -23.9173 -3.55271e-15 -46.6676 0 -3.15778 33.0974 1.08635 0 -40.1476 -2.22045e-15 16.4457 -17.2379 -2.22349 0 -8.8846 14.2294 1.98785e-16 0 -0 
